<svg xmlns="http://www.w3.org/2000/svg" viewBox="0 0 48 48">
    <title fill="#F03C30">error.colors-red</title>
    <rect x="22.5" y="13" width="3" height="17" rx="1.5" ry="1.5" transform="rotate(-180 24 21.5)"
          fill="#F03C30"></rect>
    <rect x="22.5" y="32" width="3" height="3" rx="1.5" ry="1.5" transform="rotate(-180 24 33.5)" fill="#F03C30"></rect>
    <path d="M44 16.78a1.46 1.46 0 0 0-.17-1 1.49 1.49 0 0 0-.19-.29v-.05l-11-11a1.5 1.5 0 0 0-.49-.33A1.49 1.49 0 0 0 31.5 4h-15a1.49 1.49 0 0 0-.55.11 1.5 1.5 0 0 0-.49.33l-11 11a1.49 1.49 0 0 0-.2.3 1.46 1.46 0 0 0-.16 1v14.52a1.47 1.47 0 0 0 .39 1.3l11 11a1.47 1.47 0 0 0 1.29.39h14.49a1.47 1.47 0 0 0 1.29-.39l11-11a1.47 1.47 0 0 0 .39-1.3zM30.92 41H17.08L7 30.92v-13.8L17.12 7h13.76L41 17.12v13.8z"
          fill="#F03C30"></path>
</svg>