<svg viewBox="0 0 48 48" xmlns="http://www.w3.org/2000/svg"><g fill="#0071b3"><circle cx="16" cy="22" r="2"/><circle cx="24" cy="22" r="2"/><circle cx="32" cy="22" r="2"/><circle cx="16" cy="29" r="2"/><circle cx="24" cy="29" r="2"/><circle cx="32" cy="29" r="2"/><circle cx="16" cy="36" r="2"/><circle cx="24" cy="36" r="2"/><circle cx="32" cy="36" r="2"/><rect height="8" rx="1" width="20" x="14" y="9"/><path d="m36 6a1 1 0 0 1 1 1v34a1 1 0 0 1 -1 1h-24a1 1 0 0 1 -1-1v-34a1 1 0 0 1 1-1zm0-3h-24a4 4 0 0 0 -4 4v34a4 4 0 0 0 4 4h24a4 4 0 0 0 4-4v-34a4 4 0 0 0 -4-4z"/></g></svg>