<svg height="232" width="1032" xmlns="http://www.w3.org/2000/svg">
    <g fill="#fff">
        <path d="m202.9 134.6h4.1v-10.2h-5.2zm49.4-55.7h-53v-12.8h-13.3v12.8h-64.3v-12.8h-13.3v12.8h-64.2v-12.8h-13.2v12.8h-2.3l-28.9 52.8v74.4h203l.5-18.4c0-1.2.7-2.2 1.7-2.5v-1.8h-.1c-.5 0-.9-.4-.9-.9s.4-.9.9-.9h.2l.9-36.9h-.2c-.5 0-.8-.4-.8-.8v-.5c0-.5.3-.9.7-1.2v-.9c0-.5.3-1 .7-1.2-.3-.2-.6-.6-.7-.9h-3.4c-.2.3-.5.6-1 .6-.6 0-1.1-.5-1.1-1.1s.5-1.1 1.1-1.1c.4 0 .8.2 1 .6h3.4c.2-.6.6-1 1.2-1.2v-1.2h-5.1l-1.2-11.4h-.5c-.7 0-.9-1-.3-1.3l7.3-2.8c-.5-.1-.8-.6-.8-1.1 0-.6.5-1.1 1.1-1.1s1.1.5 1.1 1.1c0 .5-.3.9-.8 1.1l7.3 2.8c.6.3.4 1.3-.3 1.3h-.5l-1.2 11.4h-5.1v1.2c.5.2 1 .6 1.1 1.2h3.5c.2-.3.5-.6 1-.6.6 0 1.1.5 1.1 1.1s-.5 1.1-1.1 1.1c-.4 0-.8-.2-1-.6h-3.5c-.1.4-.4.7-.7 1 .4.2.7.7.7 1.2v.9c.4.2.7.6.7 1.2v.5c0 .5-.4.8-.8.8h.1l.9 36.9h.2c.5 0 .9.4.9.9s-.4.9-.9.9h-.1v1.8c.9.3 1.6 1.3 1.7 2.5l.5 18.4h68.8v-74.4zm-40.1 55.7 1.1-10.2h-5.2v8.5h1.3v1.8h2.8zm109.4 59h-3v-11.5c0-2-1.6-3.6-3.6-3.6h-24c-2 0-3.6 1.6-3.6 3.6v10.1h-3v-10.1c0-3.6 3-6.6 6.6-6.6h24c3.6 0 6.6 3 6.6 6.6z"/>
        <path d="m286 183.9h34.1v3h-34.1z"/>
        <path d="m389.8 161.3h4.2v34.5h-4.2z"/>
        <path d="m389.4 163.1h3.1c13.9 0 25.2-11.3 25.2-25.2v-53.2c0-13.9-11.3-25.2-25.2-25.2h-3.1c-13.9 0-25.2 11.3-25.2 25.2v53.3c.1 13.9 11.3 25.1 25.2 25.1z"/>
        <path d="m309.1 137.3c2.1-3.3 2.8-7.3 1.7-11.1-.4-1.5-.6-3-.6-4.6 0-3.4 1-6.7 2.8-9.3 1.8-2.8 2.3-6.1 1.5-9.3-.3-1-.4-2.1-.4-3.2 0-7.4 6.4-13.6 13.8-13.3 7.2.2 12.9 6.1 12.9 13.3 0 1.1-.1 2.2-.4 3.2-.8 3.2-.3 6.5 1.5 9.3 1.7 2.7 2.8 5.9 2.8 9.3 0 1.6-.2 3.1-.6 4.6-1 3.7-.5 7.7 1.6 10.9 2.4 3.7 3.7 8.1 3.4 12.9-.6 11.4-10.1 20.4-21.5 20.5-12 .1-21.7-9.6-21.7-21.6-.2-4.3 1.1-8.3 3.2-11.6z"/>
        <path d="m324.9 162.8h4.9v30.4h-4.9zm34 40.5c-.1-.6-.2-1.2-.2-1.8 0-4.9 4-8.9 8.9-8.9 2.1 0 4 .7 5.5 1.9 0-.3-.1-.6-.1-.9 0-4.9 4-8.9 8.9-8.9 1.6 0 3 .4 4.3 1.2.6-4.4 4.3-7.7 8.8-7.7 4.9 0 8.9 4 8.9 8.9 0 .7-.1 1.4-.3 2.1.5-.1.9-.1 1.4-.1 6.1 0 11.1 5 11.1 11.1 0 1.1-.2 2.1-.5 3.1z"/>
        <path d="m275.7 192.2h142v13.9h-142z"/>
        <path d="m656.7 101.8v-20h-7.9v9.9l-16.5-21.1-44.9 56.9-20.7-26.5v-19.2h-7.9v9l-15.8-20.2-44.9 56.9-20.5-26.2v-19.5h-7.9v9.3l-16-20.5-51.2 65 4.2 3.3 2.1-2.7v69.9h152.2c0-.4-.1-.8-.1-1.2 0-5.5 4.5-10 10-10 .4 0 .9 0 1.3.1-.1-.6-.2-1.2-.2-1.9 0-4.4 3.6-8 8-8 4.1 0 7.4 3 7.9 7 1.2-.6 2.5-1 3.9-1 4.4 0 8 3.6 8 8 0 .3-.1.5-.1.8 1.4-1.1 3.1-1.7 4.9-1.7 4.4 0 8 3.6 8 8h64.5v-69.3l1.7 2.1 4.2-3.3zm-196.3 38.4h-14.1v-22.6h14.1zm89.3 0h-14.1v-22.6h14.1zm89.4 0h-14.1v-22.6h14.1z"/>
    </g>
</svg>