<svg height="232" width="180" xmlns="http://www.w3.org/2000/svg">
    <path d="m50.6 177.8h-1.6v-3.9h1.6c4.2 0 7.6-3.4 7.6-7.6v-11.8h3.9v11.8c0 6.3-5.1 11.5-11.5 11.5z" fill="#55241a"/>
    <path d="m46.4 159.2h5.3v64.1h-5.3z" fill="#55241a"/>
    <path d="m50.1 160.6c20.2 0 36.6-16.4 36.6-36.6v-71.9c0-20.2-16.4-36.6-36.6-36.6s-36.6 16.4-36.6 36.6v71.9c0 20.2 16.4 36.6 36.6 36.6z"
          fill="#9ec300"/>
    <path d="m50.1 15.5c17 0 31.2 11.5 35.4 27.2-3.2-8.4-11.3-14.5-20.8-14.5-12.3 0-22.2 9.9-22.2 22.1v58.8c0 12.3-10 22.3-22.3 22.3-2.1 0-4.1-.3-6-.9-.4-2.2-.6-4.4-.6-6.7v-71.7c-.1-20.2 16.3-36.6 36.5-36.6z"
          fill="#c0ce06"/>
    <path d="m49 189.8h-3c-8.3 0-15-6.7-15-15h4.8c0 5.6 4.6 10.1 10.1 10.1h3v4.9z" fill="#55241a"/>
    <g fill="#9ec300">
        <path d="m37.1 176.8h-11.8c-3.5 0-6.3-2.8-6.3-6.3s2.8-6.3 6.3-6.3h11.8c3.5 0 6.3 2.8 6.3 6.3s-2.9 6.3-6.3 6.3z"/>
        <circle cx="45.8" cy="218.1" r="2.2"/>
        <path d="m50.8 218.3 3.7-13.6-1.8 13.3z"/>
        <path d="m52.2 218.3 4-6.8-1.6 6.6zm-5.7-.2-2.5-6.6.6 6.6zm-2.5-.3-3.5-6.3 1.1 6.3z"/>
        <path d="m54.5 218 2.3-3.1-.7 3.1z"/>
    </g>
    <path d="m73.2 224h-48.3v-3.6c0-1.6 1.3-2.8 2.8-2.8h42.7c1.6 0 2.8 1.3 2.8 2.8z" fill="#84d0f0"/>
    <path d="m73.2 224h-11.1v-6.4h8.3c1.6 0 2.8 1.3 2.8 2.8z" fill="#00aae6"/>
    <path d="m103 183.7h3.5v34.5h-3.5z" fill="#3175b2"
          transform="matrix(-.96363978 .26720474 -.26720474 -.96363978 259.46041 366.5916)"/>
    <path d="m89.8 215.2c0-1.6-1.3-2.9-2.9-2.9s-2.9 1.3-2.9 2.9 1.3 2.9 2.9 2.9c1.6-.1 2.9-1.4 2.9-2.9z"
          fill="#7c90a6"/>
    <path d="m101.6 195.4h.2c.4-.1.6-.5.5-.9l-2.3-7.5c-.1-.4-.5-.6-.9-.5s-.6.5-.5.9l2.3 7.5c.1.3.4.5.7.5z"
          fill="#7c90a6"/>
    <path d="m108.4 185.9h-16.4s1.3 4.6 5.9 4.6 3.8-2.7 7.6-2.7 5.4-1.9 2.9-1.9z" fill="#55241a"/>
    <path d="m132.9 189c.7 0 1.4-.3 1.9-.8 1-1 1-2.7 0-3.7l-19-18.6c-1-1-2.7-1-3.7 0s-1 2.7 0 3.7l19 18.6c.5.5 1.2.8 1.8.8z"
          fill="#f6861e"/>
    <circle cx="135.1" cy="187.4" fill="#f8b000" r="3.8"/>
    <path d="m130.4 194h.1c.4-.1.7-.4.6-.8l-1-6.4h5.3c.4 0 .7-.3.7-.7s-.3-.7-.7-.7h-6.1c-.2 0-.4.1-.5.3s-.2.4-.2.6l1.1 7.2c0 .3.3.5.7.5z"
          fill="#7c90a6"/>
    <path d="m136.6 197.4c2.1-.2 6-1.7 6-6.4 0-1.7-.5-3.1-1.6-4.1-1.8-1.7-4.5-1.6-4.6-1.6-.5 0-.8.4-.8.9s.4.8.9.8c0 0 2.1-.1 3.4 1.2.7.7 1.1 1.6 1.1 2.9 0 4.3-4.2 4.7-4.3 4.7-.5 0-.8.5-.8.9-.2.4.2.7.7.7z"
          fill="#fe9b00"/>
    <path d="m124 215c0 9.2 7.5 16.7 16.7 16.7s16.7-7.5 16.7-16.7-7.5-16.7-16.7-16.7-16.7 7.5-16.7 16.7zm2.5 0c0-7.9 6.4-14.3 14.3-14.3s14.3 6.4 14.3 14.3-6.4 14.3-14.3 14.3-14.3-6.4-14.3-14.3z"
          fill="#fe9b00"/>
    <path d="m70.2 215c0 9.2 7.5 16.7 16.7 16.7s16.7-7.5 16.7-16.7-7.5-16.7-16.7-16.7-16.7 7.5-16.7 16.7zm2.4 0c0-7.9 6.4-14.3 14.3-14.3s14.3 6.4 14.3 14.3-6.4 14.3-14.3 14.3c-7.8 0-14.3-6.4-14.3-14.3z"
          fill="#fe9b00"/>
    <path d="m110.1 218.1c-.4-.1-.7-.4-.8-.7l-9-24.4c-.1-.4-.1-.7.1-1s.6-.5.9-.5h28.9c.5 0 1 .4 1.1.9 0 .1 1.3 5.4 3.5 12.4.9 2.9 3.4 5.7 5.2 7.8.5.5.9 1 1.2 1.4.4.5.3 1.2-.2 1.6s-1.2.3-1.6-.2c-.3-.4-.7-.9-1.2-1.4-2-2.2-4.6-5.3-5.7-8.6-.8-2.6-1.5-4.9-2.1-6.9l-19.6 19.3c-.2.2-.5.3-.8.3.3.1.2.1.1 0zm19.4-24.3h-26.4l7.8 21.2 19.3-18.9c-.4-1-.6-1.8-.7-2.3z"
          fill="#55241a"/>
    <path d="m110.4 218c.4 0 .8-.3.9-.8 0-.5-.3-.9-.8-.9l-22.4-2.1 14.1-21.1c.3-.4.2-.9-.2-1.2s-.9-.2-1.2.2l-14.9 22.3c-.2.3-.2.6-.1.8.1.3.4.5.7.5l23.9 2.3c-.1 0 0 0 0 0z"
          fill="#55241a"/>
    <circle cx="111.1" cy="216.8" fill="#7c90a6" r="5.3"/>
    <path d="m109.7 187.5c-3 3.1-7.8 3.8-11.7 1.5s-5.5-6.9-4.1-11z" fill="#009fe3"/>
    <path d="m116.8 175.9-7 12.4-16.2-9.7 8.2-11.2s5.5-8 12.4-3.8c7.1 4.1 2.6 12.3 2.6 12.3z" fill="#ffc92f"/>
    <path d="m111.7 211.3 4.3-15c.2-.7 0-1.4-.6-1.9l-12.3-9.6-2.2 2.8 11.3 8.9-4 13.8z" fill="#009fe3"/>
    <path d="m108.4 209.9 5.5 2.3c.8.3 1.2 1.2.9 1.9s-1.2 1-1.9.7l-5.5-2.3z" fill="#55241a"/>
    <path d="m107.1 173.6 5.8 9.2 1.2-2.1z" fill="#f8b000"/>
    <path d="m123.6 189c.7 0 1.4-.3 1.9-.8 1-1 1-2.7-.1-3.7l-16.1-15.6c-1-1-2.7-1-3.7.1-1 1-1 2.7.1 3.7l16.1 15.6c.5.4 1.1.7 1.8.7z"
          fill="#ffc92f"/>
    <path d="m124.2 197.4c2.1-.2 6-1.7 6-6.4 0-1.7-.5-3.1-1.6-4.1-1.8-1.7-4.5-1.6-4.6-1.6-.5 0-.8.4-.8.9s.4.8.9.8c0 0 2.1-.1 3.4 1.2.7.7 1.1 1.6 1.1 2.9 0 4.3-4.2 4.7-4.3 4.7-.5 0-.8.5-.8.9-.1.4.2.7.7.7z"
          fill="#fe9b00"/>
    <circle cx="125.7" cy="187.4" fill="#f8b000" r="3.8"/>
    <path d="m117.8 167.4c-4.5 0-8.1-3.6-8.1-8.1v-7.4c0-4.5 3.6-8.1 8.1-8.1s8.1 3.6 8.1 8.1v7.4c0 4.4-3.6 8.1-8.1 8.1z"
          fill="#f8b000"/>
    <path d="m128.4 142.2h-11.7c-1.4 0-2.6 1.2-2.6 2.6v5.4h9.5c2.6 0 4.8-2.1 4.8-4.8z" fill="#f6861e"/>
    <path d="m111 155.7h-1.3v-9.3c0-1.1.9-2 2-2h3.1v7.6c-.1 2.1-1.7 3.7-3.8 3.7z" fill="#f6861e"/>
    <path d="m124.8 157.8c0 1.3-1.1 2.4-2.4 2.4s-2.4-1.1-2.4-2.4z" fill="#fff"/>
</svg>