<svg height="232" width="400" xmlns="http://www.w3.org/2000/svg">
    <path d="m47.6 205.9v-3h-5.3c1.5-2 2.4-4.4 2.4-7.1 0-6.6-5.3-11.9-11.9-11.9s-11.9 5.3-11.9 11.9c0 .8.1 1.5.2 2.2-1-.4-2-.6-3.1-.6-4.7 0-8.4 3.8-8.4 8.4h38z"
          fill="#85a600"/>
    <path d="m13.9 205.9c-.9-2.5-3.2-4.3-6-4.3s-5.2 1.8-6 4.3z" fill="#85a600"/>
    <path d="m16.2 190.7h2.4v15.1h-2.4z" fill="#55241a"/>
    <path d="m16 191.8h1.8c8.1 0 14.6-6.5 14.6-14.6v-34.2c0-8.1-6.5-14.6-14.6-14.6h-1.8c-8.1 0-14.6 6.5-14.6 14.6v34.2c0 8.1 6.5 14.6 14.6 14.6z"
          fill="#9ec300"/>
    <path d="m16.9 128.4c7.2 0 13.2 4.9 15 11.5-1.3-3.6-4.8-6.1-8.8-6.1-5.2 0-9.4 4.2-9.4 9.4v26.9c0 5.2-4.2 9.4-9.4 9.4-.9 0-1.7-.1-2.6-.4-.2-.9-.3-1.9-.3-2.8v-32.4c0-8.6 6.9-15.5 15.5-15.5z"
          fill="#c0ce06"/>
    <path d="m41.5 70h358.6v136h-358.6z" fill="#ffc92f"/>
    <path d="m41.5 153.8h358.7v4.7h-358.7zm0 12.1h358.7v4.7h-358.7zm0 12h358.7v4.7h-358.7zm0-106.6h358.6v2.8h-358.6z"
          fill="#f8b000"/>
    <path d="m360.4 70h2.3v135.9h-2.3z" fill="#ffe393"/>
    <path d="m360.4 79.3h2.3v.6h-2.3zm0 22h2.3v.6h-2.3zm0 22h2.3v.6h-2.3zm0 24.5h2.3v.6h-2.3zm0 22h2.3v.6h-2.3zm0 21.9h2.3v.6h-2.3z"
          fill="#f8b000"/>
    <path d="m360.4 71.3h2.3v2.8h-2.3z" fill="#ffc865"/>
    <path d="m74.6 198.5v-.4c0-2.8-2.2-5-5-5-.8 0-1.5.2-2.2.5-.8-1.3-2.2-2.2-3.8-2.2-.8 0-1.5.2-2.1.6-.9-.9-2.1-1.5-3.4-1.5-2.4 0-4.3 1.8-4.6 4.1-.3-.1-.6-.1-.9-.1-2.3 0-4.1 1.7-4.4 3.9-.8 1-1.2 2.2-1.2 3.6 0 1.6.6 3 1.6 4h27.2c.8-.8 1.4-2 1.4-3.3 0-1.8-1.1-3.4-2.6-4.2z"
          fill="#85a600"/>
    <path d="m227.5 201.7v-4.2c0-3.2-2.6-5.7-5.7-5.7-3.9 0-7-3.1-7-7v-11.3c0-1.1-.9-2-2-2s-2-.9-2-2v-5.3c0-1.6 1.3-2.9 2.9-2.9 2.1 0 3.8-1.7 3.8-3.8v-6.1"
          fill="none" stroke="#96b432" stroke-miterlimit="10" stroke-width=".9288"/>
    <path d="m54 29.7h25.7v25.9h-25.7z" fill="#ffc92f"/>
    <path d="m50 29.7h29.7v2.6h-29.7z" fill="#84d0f0"/>
    <path d="m50 23.8h52.7v5.9h-52.7z" fill="#00aae6"/>
    <path d="m90.6 18.3h309.6v50.5h-369z" fill="#f6861e"/>
    <path d="m133 187.4h-72.7v.9c0 .9.7 1.6 1.6 1.6h69.6c.9 0 1.6-.7 1.6-1.6v-.9z" fill="#f8b000"/>
    <path d="m61.8 143h69.8v43h-69.8z" fill="#55241a"/>
    <path d="m66.1 149.1h57.3v30.1h-57.3z" fill="#977a74"/>
    <path d="m75.5 190c-3.2 0-5.8-2.6-5.8-5.8v-12.2c0-3.2 2.6-5.8 5.8-5.8s5.8 2.6 5.8 5.8v12.2c0 3.2-2.6 5.8-5.8 5.8z"
          fill="#55241a"/>
    <path d="m67.8 184.3c-3.2 0-5.8-2.6-5.8-5.8v-12.2c0-3.2 2.6-5.8 5.8-5.8s5.8 2.6 5.8 5.8v12.2c0 3.2-2.6 5.8-5.8 5.8zm54.3 1.4c0-.2 0-.4.1-.5.1-1.9-.4-3.6-1.3-5-.8-1.3-1-2.8-.6-4.2.2-.6.2-1.2.2-1.8 0-1.3-.4-2.6-1.1-3.6-.7-1.1-.9-2.4-.6-3.6.1-.4.2-.8.2-1.3 0-2.8-2.2-5.1-5-5.2-2.9-.1-5.4 2.3-5.4 5.2 0 .4.1.9.2 1.3.3 1.2.1 2.6-.6 3.6s-1.1 2.3-1.1 3.6c0 .6.1 1.2.2 1.8.4 1.5.1 3-.7 4.3s-1.3 2.8-1.3 4.5c0 .4 0 .7.1 1.1 5.5-.7 11.1-.1 16.7-.2z"
          fill="#55241a"/>
    <path d="m123.2 176.4 1.4-4.3h-5.5l1.4 4.3c-1.7.6-2.9 2.1-2.9 4 0 2.4 1.9 4.3 4.3 4.3s4.3-1.9 4.3-4.3c-.1-1.8-1.3-3.4-3-4z"
          fill="#00aae6"/>
    <path d="m61.8 143h69.8v43h-69.8zm22.3.3v42.4m-22.2-32.3h22.3" fill="none" stroke="#fff" stroke-miterlimit="10"
          stroke-width="2.7638"/>
    <path d="m105.7 179.4c0 1.4-.7 2.6-.7 2.6s-.7-1.2-.7-2.6.7-2.6.7-2.6.7 1.2.7 2.6z" fill="#96b432"/>
    <path d="m104.6 180.5c.5 1 .4 2.1.4 2.1s-.9-.6-1.4-1.6-.4-2.1-.4-2.1.9.5 1.4 1.6z" fill="#96b432"/>
    <path d="m105.3 180.5c-.5 1-.4 2.1-.4 2.1s.9-.6 1.4-1.6.4-2.1.4-2.1-.9.5-1.4 1.6z" fill="#96b432"/>
    <path d="m105 184.6c-.8 0-1.4-.6-1.4-1.4v-1.5h2.8v1.5c0 .7-.7 1.4-1.4 1.4z" fill="#f8b000"/>
    <path d="m111.9 179.4c0 1.4-.7 2.6-.7 2.6s-.7-1.2-.7-2.6.7-2.6.7-2.6.7 1.2.7 2.6z" fill="#96b432"/>
    <path d="m110.8 180.5c.5 1 .4 2.1.4 2.1s-.9-.6-1.4-1.6-.4-2.1-.4-2.1.9.5 1.4 1.6z" fill="#96b432"/>
    <path d="m111.5 180.5c-.5 1-.4 2.1-.4 2.1s.9-.6 1.4-1.6.4-2.1.4-2.1-.9.5-1.4 1.6z" fill="#96b432"/>
    <path d="m111.2 184.6c-.8 0-1.4-.6-1.4-1.4v-1.5h2.8v1.5c0 .7-.6 1.4-1.4 1.4z" fill="#f8b000"/>
    <path d="m62.2 177.5 35.7-34.5h33.4l-.7 8.2-34.7 35.2h-34.1s.4-9.7.4-8.9z" fill="#fff" opacity=".12"/>
    <path d="m99.4 171.6h-5.6s1.4 1.5 1.4 2.8-2.4 2.8-2.4 5.9 1.8 4.3 3.8 4.3c1.9 0 3.8-1.1 3.8-4.3 0-3.1-2.4-4.6-2.4-5.9-.1-1.3 1.4-2.8 1.4-2.8z"
          fill="#f6861e"/>
    <path d="m61.8 81.5h69.8v38.6h-69.8z" fill="#55241a"/>
    <path d="m76.2 118.8c-1.4 0-2.6-1.2-2.6-2.6v-2.9h5.2v2.9c0 1.4-1.1 2.6-2.6 2.6z" fill="#744c44"/>
    <circle cx="76.3" cy="111.9" fill="#744c44" r="1.8"/>
    <circle cx="74.6" cy="109" fill="#744c44" r="1.8"/>
    <circle cx="76.6" cy="106.5" fill="#744c44" r="1.8"/>
    <path d="m99.4 87.8v-1.5h-1.2v-3.9h-.5v3.9h-1.2v1.5c-2 .6-3.5 2.5-3.5 4.7v.6h9.9v-.6c0-2.2-1.5-4-3.5-4.7z"
          fill="#744c44"/>
    <path d="m114.9 82.3v10.4c0 4.7 3.8 8.6 8.6 8.6v17.7h8.1v-36.7zm-36.8 0v10.4c0 4.7-3.8 8.6-8.6 8.6v17.7h-8.1v-36.7z"
          fill="#f6861e"/>
    <path d="m132.9 121.4h-72.5v-41.3h72.5zm-69.7-2.7h67v-35.8h-67z" fill="#fff"/>
    <path d="m133 121.4h-72.7v.9c0 .9.7 1.6 1.6 1.6h69.6c.9 0 1.6-.7 1.6-1.6v-.9z" fill="#f8b000"/>
    <path d="m82.9 81.8h2.8v38.1h-2.8z" fill="#fff"/>
    <path d="m131.5 120.1v-26.1l-26 26.1z" fill="#fff" opacity=".12"/>
    <path d="m61.8 117.6 35.8-35.8-.3-.3h-35.5z" fill="#fff" opacity=".12"/>
    <path d="m107 111.5v-3.5h-1.7v3.5c-1 0-1.8.8-1.8 1.8v5.3h5.3v-5.3c.1-.9-.8-1.8-1.8-1.8zm-6.8 2v-2.5h-1.2v2.5c-.7 0-1.3.6-1.3 1.3v3.9h3.9v-3.9c-.1-.7-.7-1.3-1.4-1.3z"
          fill="#744c44"/>
    <path d="m156.3 149.9h28.2v55.6h-28.2z" fill="#f8b000"/>
    <path d="m185.9 206h-31v-57.5h31zm-28.2-2.1h25.5v-52.6h-25.5zm-2.8-62.2h31v6.8h-31z" fill="#fff"/>
    <path d="m154.9 148.5h31v6h-31z" fill="#857b77" opacity=".2"/>
    <path d="m165.5 158.9v9.2h10v-9.2zm0 20.6h10v-9.2h-10zm0 11.3h10v-9.2h-10z" fill="#55241a"/>
    <circle cx="179.4" cy="176.9" fill="#fff" r="1.6"/>
    <path d="m165.5 179.5h3.5l6.5-6.5v-1.1h-10zm1.8-18.7-1.8 1.8v5.6h10v-7.4z" fill="#fff" opacity=".12"/>
    <path d="m154.5 81.4h31.9v10.4h-31.9z" fill="#55241a"/>
    <path d="m154.5 91.8h7.6l9.4-9.4-1-1h-16z" fill="#61342b"/>
    <path d="m187.8 93.2h-34.7v-13.2h34.7zm-31.9-2.8h29.1v-7.6h-29.2v7.6z" fill="#fff"/>
    <path d="m376 81.4h24.1v10.4h-24.1z" fill="#55241a"/>
    <path d="m376 91.8h7.6l9.3-9.4-1-1h-15.9z" fill="#61342b"/>
    <path d="m170.1 111.5h-6.6c-.6 0-1.1-.5-1.1-1.1v-1.5c0-.6.5-1.1 1.1-1.1h6.6c.6 0 1.1.5 1.1 1.1v1.5c0 .6-.5 1.1-1.1 1.1zm11.1 0h-6.6c-.6 0-1.1-.5-1.1-1.1v-1.5c0-.6.5-1.1 1.1-1.1h6.6c.6 0 1.1.5 1.1 1.1v1.5c0 .6-.5 1.1-1.1 1.1zm-5.7-5.3h-6.6c-.6 0-1.1-.5-1.1-1.1v-1.5c0-.6.5-1.1 1.1-1.1h6.6c.6 0 1.1.5 1.1 1.1v1.5c0 .6-.5 1.1-1.1 1.1zm20 24.5h-6.6c-.6 0-1.1-.5-1.1-1.1v-1.5c0-.6.5-1.1 1.1-1.1h6.6c.6 0 1.1.5 1.1 1.1v1.5c0 .6-.5 1.1-1.1 1.1zm-5.7-5.4h-6.6c-.6 0-1.1-.5-1.1-1.1v-1.5c0-.6.5-1.1 1.1-1.1h6.6c.6 0 1.1.5 1.1 1.1v1.5c0 .7-.4 1.1-1.1 1.1zm-31.6 0h-6.6c-.6 0-1.1-.5-1.1-1.1v-1.5c0-.6.5-1.1 1.1-1.1h6.6c.6 0 1.1.5 1.1 1.1v1.5c0 .7-.5 1.1-1.1 1.1zm215.4-11.8h6.6c.6 0 1.1-.5 1.1-1.1v-1.5c0-.6-.5-1.1-1.1-1.1h-6.6c-.6 0-1.1.5-1.1 1.1v1.5c0 .6.5 1.1 1.1 1.1zm5.7-5.3h6.6c.6 0 1.1-.5 1.1-1.1v-1.5c0-.6-.5-1.1-1.1-1.1h-6.6c-.6 0-1.1.5-1.1 1.1v1.5c-.1.6.4 1.1 1.1 1.1zm20.9 13.4h-5c-.6 0-1.1.5-1.1 1.1v1.5c0 .6.5 1.1 1.1 1.1h5zm-353.8 67.4h-4.9v3.7h4.9c.6 0 1.1-.5 1.1-1.1v-1.5c.1-.6-.4-1.1-1.1-1.1zm248-1.6h-72.7v.9c0 .9.7 1.6 1.6 1.6h69.6c.9 0 1.6-.7 1.6-1.6v-.9z"
          fill="#f8b000"/>
    <path d="m223.1 143h69.8v43h-69.8z" fill="#55241a"/>
    <path d="m227.5 149.1h57.3v30.1h-57.3z" fill="#977a74"/>
    <path d="m250.3 180.1 5.7-17.8c.2-.7 1.3-.7 1.5 0l5.1 17.8zm-25.4 0 6.9-21.5c.3-.9 1.5-.9 1.8 0l6.2 21.5z"
          fill="#55241a"/>
    <path d="m260.5 180.1 5.7-17.8c.2-.7 1.3-.7 1.5 0l5.1 17.8z" fill="#55241a"/>
    <path d="m271.1 172.3c.8-1.3 1.1-2.8.7-4.3-.2-.6-.2-1.2-.2-1.8 0-1.3.4-2.6 1.1-3.6.7-1.1.9-2.4.6-3.6-.1-.4-.2-.8-.2-1.3 0-2.9 2.5-5.3 5.4-5.2 2.8.1 5 2.4 5 5.2 0 .4-.1.9-.2 1.3-.3 1.2-.1 2.6.6 3.6s1.1 2.3 1.1 3.6c0 .6.4 1.7.2 2.2-.4 1.4.1 2.6.9 3.8.9 1.4.7 3.2.6 5-.2 4.4-3.9 8-8.4 8-4.7 0-8.5-3.8-8.5-8.4 0-1.6.5-3.2 1.3-4.5z"
          fill="#55241a"/>
    <path d="m281.3 178.2 1.1-3.3h-4.3l1.1 3.3c-1.3.4-2.3 1.7-2.3 3.1 0 1.8 1.5 3.3 3.3 3.3s3.3-1.5 3.3-3.3c.1-1.4-.9-2.6-2.2-3.1z"
          fill="#f8b000"/>
    <path d="m294.3 187.4h-72.5v-45.8h72.5zm-69.8-2.8h67v-40.2h-67z" fill="#fff"/>
    <path d="m244.1 143.3h2.8v42.5h-2.8z" fill="#fff"/>
    <path d="m223.3 152h22.3v2.8h-22.3z" fill="#fff"/>
    <path d="m274.6 176.3c0 2.3-1.1 4.2-1.1 4.2s-1.1-1.9-1.1-4.2 1.1-4.2 1.1-4.2 1.1 1.9 1.1 4.2z" fill="#96b432"/>
    <path d="m272.9 177.9c.8 1.7.7 3.4.7 3.4s-1.4-1-2.2-2.6c-.8-1.7-.7-3.4-.7-3.4s1.4 1 2.2 2.6z" fill="#96b432"/>
    <path d="m274 177.9c-.8 1.7-.7 3.4-.7 3.4s1.4-1 2.2-2.6c.8-1.7.7-3.4.7-3.4s-1.4 1-2.2 2.6z" fill="#96b432"/>
    <path d="m273.4 184.6c-1.3 0-2.3-1-2.3-2.3v-2.4h4.5v2.4c.1 1.3-.9 2.3-2.2 2.3z" fill="#00aae6"/>
    <path d="m237.7 175.1c.6 1.5-.5 3.4-.5 3.4s-2.1-.6-2.7-2.1-.1-2.4.7-2.7c1-.5 1.9-.1 2.5 1.4z" fill="#55241a"/>
    <path d="m228.9 177.4h7.2v.7h-7.2z" fill="#96b432"
          transform="matrix(.33739101 .9413646 -.9413646 .33739101 321.311131 -101.080789)"/>
    <path d="m230.6 177.1h7.4v.7h-7.4z" fill="#96b432"
          transform="matrix(.07619696 .99709279 -.99709279 .07619696 393.424072 -69.7503)"/>
    <path d="m232.4 174.6c-.3 1.3-2 2-2 2s-1.1-1.4-.8-2.7 1.1-1.7 1.9-1.5 1.3.9.9 2.2z" fill="#96b432"/>
    <path d="m235.1 176h.7v4.9h-.7z" fill="#55241a"
          transform="matrix(.963247 .26861722 -.26861722 .963247 56.597858 -56.687678)"/>
    <path d="m236.9 174.1h.7v7.3h-.7z" fill="#96b432"
          transform="matrix(.85650139 .51614471 -.51614471 .85650139 125.776035 -96.965063)"/>
    <path d="m229 179h4v.7h-4z" fill="#96b432"
          transform="matrix(.60221917 .7983308 -.7983308 .60221917 235.032874 -113.089926)"/>
    <path d="m235.4 173.4c-1 1.2-3.2 1.1-3.2 1.1s-.4-2.1.6-3.3 2-1.2 2.8-.6c.6.6.8 1.6-.2 2.8zm-5.3 5.2c-1 1.2-2.7 1.6-2.7 1.6s.1-1.7 1.1-2.9 1.8-1.4 2.2-1.1c.5.3.4 1.1-.6 2.4z"
          fill="#b3cf01"/>
    <path d="m228.9 180.5c.9 2.4 3.2 4 5.9 4s5-1.7 5.9-4z" fill="#f6861e"/>
    <path d="m237.8 177.2h.7v2.3h-.7z" fill="#96b432"
          transform="matrix(.12209454 .99251847 -.99251847 .12209454 386.110154 -79.813916)"/>
    <path d="m241.6 173.6c.6 1.5-.5 3.4-.5 3.4s-2.1-.6-2.7-2.1-.1-2.4.7-2.7c1-.4 1.9-.1 2.5 1.4zm-1.1 4.6c.8.9.9 2.1.9 2.1s-1.2-.2-1.9-1.1-.8-1.4-.5-1.7c.2-.3.7-.2 1.5.7z"
          fill="#96b432"/>
    <path d="m223.5 177.5 35.7-34.5h33.4l-.7 8.2-34.7 35.2h-34.1s.4-9.7.4-8.9z" fill="#fff" opacity=".12"/>
    <path d="m249.9 170.4h5.8v.4h-5.8z" fill="#96b432"
          transform="matrix(.07932507 .99679864 -.99679864 .07932507 402.836753 -95.009995)"/>
    <path d="m253.4 168.3h.4v3h-.4z" fill="#96b432"
          transform="matrix(.90477503 .42588983 -.42588983 .90477503 96.450701 -91.829853)"/>
    <path d="m253.1 184.6c-.9 0-1.6-.7-1.6-1.6v-4.8c0-.9.7-1.6 1.6-1.6s1.6.7 1.6 1.6v4.8c0 .9-.7 1.6-1.6 1.6z"
          fill="#f8b000"/>
    <path d="m252.5 173.2h1.3v4.2h-1.3z" fill="#f8b000"/>
    <circle cx="252.6" cy="167.3" fill="#f8b000" r=".5"/>
    <circle cx="254.8" cy="168.3" fill="#f8b000" r=".5"/>
    <circle cx="254.4" cy="169.5" fill="#f8b000" r=".4"/>
    <circle cx="253.9" cy="170.4" fill="#f8b000" r=".4"/>
    <path d="m294.2 128.8h-72.5v-48.8h72.5z" fill="#00aae6"/>
    <path d="m224.9 111.2h18.8v1.4h-18.8zm22.4 0h41.1v1.4h-41.1z" fill="#0082e6"/>
    <path d="m248.2 83.7h42.5v26.6h-42.5z" fill="#55241a"/>
    <path d="m252 83.7-3.8 3.8v22.8h9.7l26.6-26.6z" fill="#fff" opacity=".12"/>
    <path d="m261.3 88.6v-5.8h-.6v5.8c-2.7.2-4.9 2.4-4.9 5.2 0 2.9 2.3 5.2 5.2 5.2s5.2-2.3 5.2-5.2c0-2.8-2.2-5.1-4.9-5.2zm8.3 17.3c0 2-.9 3.7-.9 3.7s-.9-1.6-.9-3.7c0-2 .9-3.7.9-3.7s.9 1.6.9 3.7z"
          fill="#744c44"/>
    <path d="m267.5 106.9c1 1.2 1.2 2.7 1.2 2.7s-1.5-.4-2.6-1.6-1.2-2.7-1.2-2.7 1.5.4 2.6 1.6zm3.6.3c-.9 1.3-2.4 1.8-2.4 1.8s0-1.6.9-2.9 2.4-1.8 2.4-1.8 0 1.6-.9 2.9z"
          fill="#744c44"/>
    <path d="m271.5 109c-1.4.7-3 .4-3 .4s.7-1.4 2.2-2.1c1.4-.7 3-.4 3-.4s-.8 1.4-2.2 2.1zm-8.3-3.1c0 2.1-1.7 3.7-3.7 3.7s-3.7-1.7-3.7-3.7z"
          fill="#744c44"/>
    <path d="m289.8 84.6v24.9h-40.7v-24.9zm1.8-1.7h-44.2v28.4h44.2z" fill="#fff"/>
    <path d="m225.8 83.7h17v26.6h-17z" fill="#55241a"/>
    <path d="m225.8 110.3h17v-17.4l-17 17z" fill="#fff" opacity=".12"/>
    <path d="m241.9 84.6v24.9h-15.3v-24.9zm1.7-1.7h-18.8v28.4h18.8z" fill="#fff"/>
    <path d="m287.1 119h1.3v5.9h-1.3z" fill="#55241a"/>
    <path d="m287.6 119.1c2.5 0 4.5-2 4.5-4.5v-9.9c0-2.5-2-4.5-4.5-4.5s-4.5 2-4.5 4.5v9.9c-.1 2.5 2 4.5 4.5 4.5z"
          fill="#9ec300"/>
    <path d="m287.6 100.2c2.1 0 3.8 1.4 4.4 3.4-.4-1-1.4-1.8-2.6-1.8-1.5 0-2.7 1.2-2.7 2.7v8.3c0 1.5-1.2 2.7-2.7 2.7-.3 0-.5 0-.7-.1 0-.3-.1-.5-.1-.8v-9.9c-.2-2.5 1.9-4.5 4.4-4.5z"
          fill="#c0ce06"/>
    <path d="m287.9 128.4h-.8c-1.2 0-2.2-.9-2.2-2.1l-.2-2.4c0-.3.2-.6.6-.6h4.4c.3 0 .6.3.6.6l-.2 2.4c0 1.2-1 2.1-2.2 2.1z"
          fill="#55241a"/>
    <path d="m295.9 129.9h-75.8v6.1c0 .9.7 1.6 1.6 1.6h72.5c.9 0 1.6-.7 1.6-1.6v-6.1z" fill="#f8b000"/>
    <g fill="#fff">
        <path d="m220.1 128.5h75.8v2.7h-75.8zm-.1-13.8h3.1v13.8h-3.1z"/>
        <circle cx="221.6" cy="113.2" r="1.5"/>
        <path d="m292.7 114.7h3.1v13.8h-3.1z"/>
        <circle cx="294.2" cy="113.2" r="1.5"/>
        <path d="m221.6 114.7h72.5v.8h-72.5zm0 11.2h72.5v.8h-72.5z"/>
        <path d="m227.2 126.5h-2v-4.2c0-.5.4-1 1-1 .5 0 1 .4 1 1z"/>
        <path d="m225.8 115.4h.8v6.6h-.8zm6.2 11.1h-2v-4.2c0-.5.4-1 1-1 .5 0 1 .4 1 1z"/>
        <path d="m230.6 115.4h.8v6.6h-.8zm6.3 11.1h-2v-4.2c0-.5.4-1 1-1 .5 0 1 .4 1 1z"/>
        <path d="m235.5 115.4h.8v6.6h-.8zm6.3 11.1h-2v-4.2c0-.5.4-1 1-1 .5 0 1 .4 1 1z"/>
        <path d="m240.4 115.4h.8v6.6h-.8zm6.2 11.1h-2v-4.2c0-.5.4-1 1-1 .5 0 1 .4 1 1z"/>
        <path d="m245.2 115.4h.8v6.6h-.8zm6.3 11.1h-2v-4.2c0-.5.4-1 1-1 .5 0 1 .4 1 1z"/>
        <path d="m250.1 115.4h.8v6.6h-.8zm6.2 11.1h-2v-4.2c0-.5.4-1 1-1 .5 0 1 .4 1 1z"/>
        <path d="m254.9 115.4h.8v6.6h-.8zm6.3 11.1h-2v-4.2c0-.5.4-1 1-1 .5 0 1 .4 1 1z"/>
        <path d="m259.8 115.4h.8v6.6h-.8zm6.3 11.1h-2v-4.2c0-.5.4-1 1-1 .5 0 1 .4 1 1z"/>
        <path d="m264.7 115.4h.8v6.6h-.8zm6.2 11.1h-2v-4.2c0-.5.4-1 1-1 .5 0 1 .4 1 1z"/>
        <path d="m269.5 115.4h.8v6.6h-.8zm6.3 11.1h-2v-4.2c0-.5.4-1 1-1 .5 0 1 .4 1 1z"/>
        <path d="m274.4 115.4h.8v6.6h-.8zm6.3 11.1h-2v-4.2c0-.5.4-1 1-1 .5 0 1 .4 1 1z"/>
        <path d="m279.3 115.4h.8v6.6h-.8zm6.2 11.1h-2v-4.2c0-.5.4-1 1-1 .5 0 1 .4 1 1z"/>
        <path d="m284.1 115.4h.8v6.6h-.8zm6.3 11.1h-2v-4.2c0-.5.4-1 1-1 .5 0 1 .4 1 1z"/>
        <path d="m289 115.4h.8v6.6h-.8z"/>
    </g>
    <path d="m249.2 113.1h-.2v-.3c0-.8-.7-1.5-1.5-1.5-.6 0-1 .3-1.3.8-.2-.5-.7-.8-1.3-.8-.4 0-.7.1-1 .4v-.1c0-1.1-.9-2-2-2s-2 .9-2 2v.2c-.2-.1-.5-.2-.7-.2-.5 0-1 .3-1.2.7-.3-.4-.7-.7-1.2-.7-.8 0-1.5.7-1.5 1.5v.1c-.6 0-1.1.5-1.1 1.1s.5 1.1 1.1 1.1c.3 0 .5-.1.7-.2v1h12.4v-1c.2.1.4.2.6.2.6 0 1.1-.5 1.1-1.1.3-.7-.2-1.2-.9-1.2z"
          fill="#9ec300"/>
    <path d="m233.4 114.3.9 4.7c.1.8.8 1.3 1.6 1.3h13c.8 0 1.4-.6 1.6-1.3l.8-4.7z" fill="#55241a"/>
    <path d="m278.9 113.1h-.2v-.3c0-.8-.7-1.5-1.5-1.5-.6 0-1 .3-1.3.8-.2-.5-.7-.8-1.3-.8-.4 0-.7.1-1 .4v-.1c0-1.1-.9-2-2-2s-2 .9-2 2v.2c-.2-.1-.5-.2-.7-.2-.5 0-1 .3-1.2.7-.3-.4-.7-.7-1.2-.7-.8 0-1.5.7-1.5 1.5v.1c-.6 0-1.1.5-1.1 1.1s.5 1.1 1.1 1.1c.3 0 .5-.1.7-.2v1h12.4v-1c.2.1.4.2.6.2.6 0 1.1-.5 1.1-1.1.2-.7-.3-1.2-.9-1.2z"
          fill="#9ec300"/>
    <path d="m263 114.3.9 4.7c.1.8.8 1.3 1.6 1.3h13c.8 0 1.4-.6 1.6-1.3l.8-4.7z" fill="#55241a"/>
    <path d="m114.6 188.6h1.8v10.9h-1.8zm32.2 0h1.8v10.9h-1.8z" fill="#d6681e"/>
    <path d="m149.6 197.3h-36c-.6 0-1-.5-1-1v-1.9c0-.6.5-1 1-1h36c.6 0 1 .5 1 1v1.9c.1.5-.4 1-1 1zm0-5.2h-36c-.6 0-1-.5-1-1v-1.9c0-.6.5-1 1-1h36c.6 0 1 .5 1 1v1.9c.1.6-.4 1-1 1zm-35 13.9 1.7-5.7h-1.9l-1.7 5.7zm35.8 0-1.7-5.7h-1.9l1.7 5.7z"
          fill="#f6861e"/>
    <path d="m113.7 202.7h1.9l.7-2.4h-1.9zm35-2.4h-1.9l.7 2.4h1.9z" fill="#d6681e"/>
    <path d="m151.4 200.6h-39.4c-.6 0-1-.4-1-1s.4-1 1-1h39.4c.6 0 1 .4 1 1s-.5 1-1 1z" fill="#f6861e"/>
    <path d="m317.7 149.9h28.2v55.6h-28.2z" fill="#00aae6"/>
    <path d="m347.3 206h-31v-57.5h31zm-28.3-2.1h25.5v-52.6h-25.5z" fill="#fff"/>
    <path d="m322.6 154.5v29h18.1v-29zm0 46.4h18.1v-14h-18.1z" fill="#55241a"/>
    <path d="m342.6 180.2c-.5 0-.9-.4-.9-.9v-3.2c0-.5.4-.9.9-.9s.9.4.9.9v3.2c.1.5-.4.9-.9.9z" fill="#ffc92f"/>
    <path d="m322.6 154.5v19.5l18.1-18.1v-1.4zm0 46.4h4.7l13.4-13.4v-.6h-18.1zm0-17.4h18.1v-18.3l-18.1 18.1z"
          fill="#61342b"/>
    <path d="m316.3 141.7h31v6.8h-31z" fill="#fff"/>
    <path d="m316.3 148.5h31v6h-31z" fill="#857b77" opacity=".2"/>
    <path d="m377.7 149.9h22.4v55.6h-22.4z" fill="#f8b000"/>
    <path d="m400 203.9h-20.9v-52.6h20.9v-2.8h-23.7v57.5h23.7zm-23.7-62.2h23.7v6.8h-23.7z" fill="#fff"/>
    <path d="m376.3 148.5h23.7v6h-23.7z" fill="#857b77" opacity=".2"/>
    <circle cx="391.9" cy="168.2" fill="#f6861e" r="6.5"/>
    <circle cx="391.9" cy="167" fill="#ffc92f" r="6.5"/>
    <circle cx="391.9" cy="167" fill="#55241a" r="5.4"/>
    <path d="m391.9 161.7c-3 0-5.4 2.4-5.4 5.4 0 1.4.5 2.7 1.4 3.6l7.6-7.6c-.9-.9-2.2-1.4-3.6-1.4z" fill="#6d433a"/>
    <circle cx="382.7" cy="178.7" fill="#55241a" r="1.5"/>
    <path d="m386.8 195.8h10v1.8h-10z" fill="#ffc92f"/>
    <path d="m308.8 80h17.8v30h-17.8zm15.2 2.6h-12.6v24.8h12.6z" fill="#00aae6"/>
    <path d="m308.8 110h17.8v1.2h-17.8z" fill="#f8b000"/>
    <path d="m311.4 82.6h12.6v24.8h-12.6z" fill="#55241a"/>
    <path d="m330.2 80h17.8v30h-17.8zm15.2 2.6h-12.6v24.8h12.6z" fill="#00aae6"/>
    <path d="m330.2 110h17.8v1.2h-17.8z" fill="#f8b000"/>
    <path d="m332.8 82.6h12.6v24.8h-12.6z" fill="#55241a"/>
    <path d="m311.4 107.4h12.6v-22.4l-12.6 12.6zm21.4-24.8v20.7l12.6-12.6v-8.1z" fill="#fff" opacity=".12"/>
    <path d="m324.8 108.2h-14.3v-26.4h14.3zm-12.6-1.6h11v-23.2h-11zm34 1.6h-14.2v-26.4h14.3v26.4zm-12.6-1.6h11v-23.2h-11z"
          fill="#fff"/>
    <path d="m341.6 102.1.7-2.3h-2.9l.7 2.3c-.9.3-1.5 1.1-1.5 2.1 0 1.2 1 2.3 2.3 2.3 1.2 0 2.3-1 2.3-2.3-.1-1-.7-1.8-1.6-2.1z"
          fill="#f8b000"/>
    <path d="m334.3 106.6 2.4-4.1 2.3 4.1z" fill="#fff"/>
    <circle cx="316.9" cy="104.5" fill="#55241a" r="2"/>
    <path d="m89.5 200.7h1.9v5.7h-1.9z" fill="#55241a"
          transform="matrix(.70630414 .70790851 -.70790851 .70630414 170.647165 -4.224637)"/>
    <path d="m82.1 202.6h12v1.9h-12z" fill="#55241a"
          transform="matrix(.1673022 .98590566 -.98590566 .1673022 274.026585 82.685332)"/>
    <g fill="#9ec300">
        <circle cx="82.3" cy="186.5" r="6.4"/>
        <circle cx="84.1" cy="195.8" r="6.4"/>
        <circle cx="88.8" cy="178.8" r="6.7"/>
        <circle cx="99.1" cy="182.3" r="6.7"/>
        <circle cx="101.9" cy="191.5" r="6.7"/>
        <circle cx="89.9" cy="192.6" r="6.7"/>
        <circle cx="94.9" cy="197.7" r="6.7"/>
        <circle cx="92.9" cy="187.4" r="6.7"/>
    </g>
    <path d="m74.9 178.5h10.2v1.9h-10.2z" fill="#55241a"
          transform="matrix(.45188986 .89207374 -.89207374 .45188986 203.888753 26.953947)"/>
    <circle cx="73.5" cy="173.3" fill="#9ec300" r="3.4"/>
    <circle cx="78" cy="169.8" fill="#9ec300" r="3.4"/>
    <circle cx="78" cy="174.4" fill="#9ec300" r="3.4"/>
    <path d="m235.9 30.9h46.4v23.4h-46.4z" fill="#55241a"/>
    <path d="m235.9 43.9c1.1-.2 1.3-1 2.8-1 1.7 0 1.7 1.1 3.4 1.1s1.7-1.1 3.4-1.1 1.7 1.1 3.4 1.1 1.7-1.1 3.4-1.1 1.7 1.1 3.4 1.1 1.7-1.1 3.4-1.1 1.7 1.1 3.5 1.1 1.7-1.1 3.5-1.1 1.7 1.1 3.5 1.1c1.7 0 1.7-1.1 3.4-1.1s1.7 1.1 3.5 1.1c1.7 0 1.7-1.1 3.5-1.1 1.2 0 1.5.5 2.2.8v-12.8h-46.4v13z"
          fill="#00aae6"/>
    <path d="m235.9 31.8h45.9v2.1h-45.9z" fill="#1b98e9"/>
    <path d="m235.9 54.3h17l23.3-23.4h-21.5l-18.8 18.9z" fill="#fff" opacity=".12"/>
    <path d="m283.6 55.7h-49.2v-26.2h49.2zm-46.4-2.8h43.6v-20.6h-43.6z" fill="#fff"/>
    <path d="m257.5 30.9h2.8v23.4h-2.8z" fill="#fff"/>
    <path d="m234.5 29.5h49.2v2.8h-49.2z" fill="#e1f5f5"/>
    <path d="m232.7 23.8h52.7v5.9h-52.7z" fill="#fff"/>
    <path d="m164.1 6.1h14.6v17h-14.6z" fill="#ffc92f"/>
    <path d="m164.1 23.1h14.6v1.8h-14.6z" fill="#fff"/>
    <path d="m321.2 6.1h14.6v17h-14.6z" fill="#ffc92f"/>
    <path d="m321.2 23.1h14.6v1.8h-14.6z" fill="#fff"/>
    <path d="m304.8 193.8h1.7v7.7h-1.7z" fill="#55241a"/>
    <path d="m305.4 194c3.3 0 5.9-2.7 5.9-5.9v-13.1c0-3.3-2.7-5.9-5.9-5.9-3.3 0-5.9 2.7-5.9 5.9v13.1c0 3.2 2.6 5.9 5.9 5.9z"
          fill="#9ec300"/>
    <path d="m305.4 169.1c2.7 0 5.1 1.9 5.7 4.4-.5-1.4-1.8-2.3-3.4-2.3-2 0-3.6 1.6-3.6 3.6v10.9c0 2-1.6 3.6-3.6 3.6-.3 0-.7-.1-1-.1-.1-.4-.1-.7-.1-1.1v-13.1c.1-3.3 2.7-5.9 6-5.9z"
          fill="#c0ce06"/>
    <path d="m305.9 206.2h-1c-1.5 0-2.8-1.2-2.9-2.8l-.2-3.1c0-.5.3-.8.8-.8h5.8c.5 0 .8.4.8.8l-.2 3.1c-.2 1.6-1.5 2.8-3.1 2.8z"
          fill="#fff"/>
    <circle cx="364.2" cy="177" fill="#96b432" r="2.1"/>
    <circle cx="365.8" cy="180.9" fill="#96b432" r="2.1"/>
    <circle cx="360.3" cy="187.9" fill="#96b432" r="2.1"/>
    <circle cx="363.7" cy="182.6" fill="#96b432" r="2.1"/>
    <path d="m355.3 192.3c-.2 0-.3-.1-.4-.3-.1-.3-.2-.8.6-1.5.9-.8 2-1.4 3-2.1 1.9-1.2 3.7-2.3 4.7-4.1 1.3-2.4.8-5.4.3-8-.1-.3.1-.5.4-.5.3-.1.5.1.5.4.6 2.8 1.1 6-.4 8.6-1.1 2-3.1 3.3-5 4.5-1 .6-2 1.3-2.9 2-.3.2-.3.4-.3.4.1.2 0 .5-.2.6-.2-.1-.3 0-.3 0z"
          fill="#96b432"/>
    <circle cx="355.9" cy="145.7" fill="#96b432" r="2.1"/>
    <circle cx="358.1" cy="149.3" fill="#96b432" r="2.1"/>
    <circle cx="354.4" cy="151.4" fill="#96b432" r="2.1"/>
    <circle cx="356.7" cy="155.5" fill="#85a600" r="2.1"/>
    <circle cx="353.5" cy="156.7" fill="#c0ce06" r="2.1"/>
    <circle cx="356.7" cy="160.8" fill="#c0ce06" r="2.1"/>
    <circle cx="354.5" cy="161.8" fill="#96b432" r="2.1"/>
    <circle cx="352.4" cy="164.4" fill="#96b432" r="2.1"/>
    <circle cx="355.9" cy="163.9" fill="#96b432" r="2.1"/>
    <circle cx="355.7" cy="167.1" fill="#85a600" r="2.1"/>
    <circle cx="352.4" cy="169" fill="#96b432" r="2.1"/>
    <circle cx="355.7" cy="170.3" fill="#c0ce06" r="2.1"/>
    <circle cx="356.7" cy="179.1" fill="#96b432" r="2.1"/>
    <circle cx="354.4" cy="179.1" fill="#85a600" r="2.1"/>
    <circle cx="354.5" cy="183" fill="#85a600" r="2.1"/>
    <circle cx="357.8" cy="184" fill="#c0ce06" r="2.1"/>
    <circle cx="353.5" cy="174.3" fill="#96b432" r="2.1"/>
    <circle cx="356.5" cy="152.3" fill="#96b432" r="2.1"/>
    <path d="m354.1 206.5c-.3 0-.5-.2-.5-.5 0-2.4.7-3.7 1.4-4.9.6-1.1 1.2-2.2 1.2-4.4s-.6-3.3-1.2-4.4c-.7-1.2-1.4-2.4-1.4-4.9 0-2.4.7-3.7 1.4-4.9.6-1.1 1.2-2.2 1.2-4.4s-.6-3.3-1.2-4.4c-.7-1.2-1.4-2.4-1.4-4.9 0-2.4.7-3.7 1.4-4.9.6-1.1 1.2-2.2 1.2-4.4s-.6-3.3-1.2-4.4c-.7-1.2-1.4-2.4-1.4-4.9s.7-3.7 1.4-4.9c.6-1.1 1.2-2.2 1.2-4.4 0-.3.2-.5.5-.5s.5.2.5.5c0 2.4-.7 3.7-1.4 4.9-.6 1.1-1.2 2.2-1.2 4.4s.6 3.3 1.2 4.4c.7 1.2 1.4 2.4 1.4 4.9 0 2.4-.7 3.7-1.4 4.9-.6 1.1-1.2 2.2-1.2 4.4s.6 3.3 1.2 4.4c.7 1.2 1.4 2.4 1.4 4.9 0 2.4-.7 3.7-1.4 4.9-.6 1.1-1.2 2.2-1.2 4.4s.6 3.3 1.2 4.4c.7 1.2 1.4 2.4 1.4 4.9s-.7 3.7-1.4 4.9c-.6 1.1-1.2 2.2-1.2 4.4-.1.3-.3.5-.5.5zm-139.3-23.4h-1.8c-2.5 0-4.5-2-4.5-4.5v-1.6h.9v1.5c0 2 1.6 3.6 3.6 3.6h1.7v1z"
          fill="#96b432"/>
    <circle cx="216.6" cy="152.5" fill="#96b432" r="1.8"/>
    <circle cx="218.4" cy="155.5" fill="#85a600" r="1.8"/>
    <circle cx="215.9" cy="163.6" fill="#96b432" r="1.8"/>
    <circle cx="212.9" cy="183.7" fill="#96b432" r="1.8"/>
    <circle cx="213.7" cy="174.3" fill="#96b432" r="1.6"/>
    <circle cx="215.3" cy="149.9" fill="#96b432" r="1.1"/>
    <circle cx="214.8" cy="177.8" fill="#85a600" r="2.4"/>
    <circle cx="209" cy="177" fill="#96b432" r="1.1"/>
    <circle cx="200.1" cy="185.4" fill="#96b432" r="1.1"/>
    <circle cx="209" cy="180.4" fill="#96b432" r="1.1"/>
    <circle cx="215.3" cy="181.3" fill="#96b432" r="1.8"/>
    <circle cx="212.7" cy="165.4" fill="#96b432" r="1.8"/>
    <circle cx="211.9" cy="170.1" fill="#96b432" r="1.8"/>
    <circle cx="215.9" cy="187" fill="#96b432" r="1.8"/>
    <circle cx="216.6" cy="174" fill="#85a600" r="2.4"/>
    <circle cx="219" cy="158.9" fill="#85a600" r="2.4"/>
    <circle cx="191.8" cy="192.8" fill="#96b432" r="1.8"/>
    <circle cx="211.6" cy="162" fill="#96b432" r="1.8"/>
    <circle cx="194.6" cy="182.6" fill="#85a600" r="2.4"/>
    <circle cx="190.1" cy="188.8" fill="#96b432" r="2.4"/>
    <circle cx="202.5" cy="181.3" fill="#96b432" r="2.4"/>
    <circle cx="198.9" cy="180.9" fill="#96b432" r="2.4"/>
    <circle cx="210.3" cy="165.5" fill="#96b432" r="2.4"/>
    <path d="m191.4 206h-.9v-15.4c0-3.9 3.2-7.1 7.1-7.1 3.4 0 6.2-2.8 6.2-6.2v-5.8h.9v5.8c0 3.9-3.2 7.1-7.1 7.1-3.4 0-6.2 2.8-6.2 6.2z"
          fill="#96b432"/>
    <path d="m198.9 70h2.3v135.9h-2.3z" fill="#ffe393"/>
    <path d="m198.9 79.3h2.3v.6h-2.3zm0 22h2.3v.6h-2.3zm0 22h2.3v.6h-2.3zm0 24.5h2.3v.6h-2.3zm0 22h2.3v.6h-2.3zm0 21.9h2.3v.6h-2.3z"
          fill="#f8b000"/>
    <path d="m198.9 71.3h2.3v2.8h-2.3z" fill="#ffc865"/>
    <circle cx="208.4" cy="190.5" fill="#96b432" r="3.5"/>
    <circle cx="206.4" cy="195.5" fill="#96b432" r="3.5"/>
    <circle cx="214" cy="195.6" fill="#96b432" r="5.1"/>
    <path d="m218.8 207c-.4-2.1-2.2-3.7-4.4-3.7-.5 0-1 .1-1.5.3-.1-3.3-2.8-5.9-6.1-5.9-3.4 0-6.2 2.8-6.2 6.2 0 .3 0 .5.1.7-.5-.3-1.1-.5-1.7-.5-1.8 0-3.2 1.3-3.6 2.9z"
          fill="#96b432"/>
    <circle cx="214.8" cy="171.1" fill="#c0ce06" r="1.8"/>
    <circle cx="195.2" cy="185.1" fill="#c0ce06" r="2.4"/>
    <circle cx="216.1" cy="158" fill="#c0ce06" r="1.8"/>
    <path d="m300.1 195.8h-94.7c-2.9 0-5.2 2.3-5.2 5.2v14.3h105.2v-14.3c-.1-2.9-2.4-5.2-5.3-5.2z" fill="#9ec300"/>
    <path d="m205.3 206.2c0-3.3 2.7-5.9 5.9-5.9h83.3c2.5 0 4.5-2 4.5-4.5h-93.6c-2.5 0-4.6 1.8-5.1 4.1l-.1 11.5c2.8 0 5.1-2.3 5.1-5.2z"
          fill="#c0ce06"/>
    <path d="m70.3 195.8h-40.8c-2.9 0-5.2 2.3-5.2 5.2v14.3h51.3v-14.3c-.1-2.9-2.4-5.2-5.3-5.2z" fill="#9ec300"/>
    <path d="m29.4 206.2c0-3.3 2.7-5.9 5.9-5.9h29.4c2.5 0 4.5-2 4.5-4.5h-39.7c-2.5 0-4.6 1.8-5.1 4.1l-.1 11.5c2.8 0 5.1-2.3 5.1-5.2z"
          fill="#c0ce06"/>
    <path d="m400.5 195.8h-42.9c-2.9 0-5.2 2.3-5.2 5.2v14.3h48.1z" fill="#9ec300"/>
    <path d="m356.7 195.9c-.3 0-.5.1-.8.2h-.1c-.2.1-.5.2-.7.3h-.1c-.2.1-.5.3-.7.5l-.6.6-.1.1c-.2.2-.3.4-.5.6v.1c-.1.2-.3.5-.4.7-.1.3-.2.6-.3.8l-.1 11.5c2.8 0 5.1-2.3 5.1-5.1 0-3.3 2.7-5.9 5.9-5.9h37v-4.5h-42.9c-.3 0-.6 0-.8.1z"
          fill="#c0ce06"/>
    <path d="m342.9 212.4-2-3.8h-18.5l-2 3.8z" fill="#b0dde2"/>
    <path d="m116.9 215.3v-2.1h-3.7c1-1.4 1.7-3.1 1.7-4.9 0-4.6-3.7-8.3-8.3-8.3s-8.3 3.7-8.3 8.3c0 .5.1 1.1.2 1.6-.7-.3-1.4-.4-2.2-.4-3.2 0-5.9 2.6-5.9 5.9h26.5z"
          fill="#85a600"/>
    <path d="m134.6 215.3c.1-.3.1-.6.1-1 0-2.7-2.2-4.8-4.8-4.8-1.1 0-2.2.4-3 1v-.5c0-2.7-2.2-4.8-4.8-4.8-.9 0-1.6.2-2.3.6-.3-2.4-2.3-4.2-4.8-4.2-2.7 0-4.8 2.2-4.8 4.8 0 .4.1.8.1 1.1-.3 0-.5-.1-.8-.1-3.3 0-6 2.7-6 6 0 .6.1 1.2.2 1.7h30.9z"
          fill="#9ec300"/>
    <path d="m31.2 68.8h369v2.5h-369z" fill="#fff"/>
    <path d="m145.6 215.3c-.7-1.8-2.5-3.2-4.6-3.2s-3.9 1.3-4.6 3.2z" fill="#85a600"/>
    <path d="m143.4 215.4h6.6c1.2-2.8 1.9-6.1 1.9-6.1s-.7.6-1.7 1.5c.2-2.2.1-4 .1-4s-1.2 1.6-2.3 3.6c-.2-3.3-1.4-6.8-1.4-6.8s-1.6 4.5-1.7 8v.4c-1.9-2.5-4.6-4.6-4.6-4.6s1 4.7 2.9 7.7c.1.1.1.2.2.3z"
          fill="#9ec300"/>
    <path d="m156.2 215.3c-.6-1.5-2.1-2.6-3.8-2.6s-3.2 1.1-3.8 2.6z" fill="#85a600"/>
    <path d="m58.7 140.2h69.8v15.8h-69.8z" fill="#fff"/>
    <path d="m58.5 140.2h8v15.8h-8z" fill="#fff"/>
    <path d="m66.4 156.1c0 2.1-1.7 3.9-3.9 3.9s-3.9-1.7-3.9-3.9z" fill="#84d0f0"/>
    <path d="m66.4 140.2h7.8v15.8h-7.8z" fill="#5dc9ef"/>
    <path d="m74.2 156.1c0 2.1-1.7 3.9-3.9 3.9-2.1 0-3.9-1.7-3.9-3.9z" fill="#00aae6"/>
    <path d="m74.2 140.2h7.8v15.8h-7.8z" fill="#fff"/>
    <path d="m81.9 156.1c0 2.1-1.7 3.9-3.9 3.9s-3.9-1.7-3.9-3.9z" fill="#84d0f0"/>
    <path d="m81.9 140.2h7.8v15.8h-7.8z" fill="#5dc9ef"/>
    <path d="m89.7 156.1c0 2.1-1.7 3.9-3.9 3.9-2.1 0-3.9-1.7-3.9-3.9z" fill="#00aae6"/>
    <path d="m89.7 140.2h7.8v15.8h-7.8z" fill="#fff"/>
    <path d="m97.5 156.1c0 2.1-1.7 3.9-3.9 3.9s-3.9-1.7-3.9-3.9z" fill="#84d0f0"/>
    <path d="m97.5 140.2h7.8v15.8h-7.8z" fill="#5dc9ef"/>
    <path d="m105.2 156.1c0 2.1-1.7 3.9-3.9 3.9-2.1 0-3.9-1.7-3.9-3.9z" fill="#00aae6"/>
    <path d="m105.2 140.2h7.8v15.8h-7.8z" fill="#fff"/>
    <path d="m113 156.1c0 2.1-1.7 3.9-3.9 3.9s-3.9-1.7-3.9-3.9z" fill="#84d0f0"/>
    <path d="m113 140.2h7.8v15.8h-7.8z" fill="#5dc9ef"/>
    <path d="m120.7 156.1c0 2.1-1.7 3.9-3.9 3.9-2.1 0-3.9-1.7-3.9-3.9z" fill="#00aae6"/>
    <path d="m128.7 140.2h7.8v15.8h-7.8z" fill="#5dc9ef"/>
    <path d="m136.4 156.1c0 2.1-1.7 3.9-3.9 3.9-2.1 0-3.9-1.7-3.9-3.9z" fill="#00aae6"/>
    <path d="m120.7 140.2h8v15.8h-8z" fill="#fff"/>
    <path d="m128.5 156.1c0 2.1-1.7 3.9-3.9 3.9s-3.9-1.7-3.9-3.9z" fill="#84d0f0"/>
    <path d="m149.9 165.7.7-4.9h-7.6l.7 4.9z" fill="#ffd100"/>
    <path d="m149.9 165.7-.3 1.4h-5.6l-.3-1.4z" fill="#fff"/>
    <path d="m146.8 168.8c-.2 0-.4-.2-.4-.4v-7.6c0-.2.2-.4.4-.4s.4.2.4.4v7.6c0 .2-.2.4-.4.4z" fill="#55241a"/>
    <path d="m150 167.7h-6.4l-1.1-7.3h8.6zm-5.6-.9h4.9l.8-5.6h-6.6z" fill="#55241a"/>
    <path d="m146.6 157.9-4.6 2.2c-.5.2-.3 1 .2 1h9.1c.6 0 .7-.8.2-1l-4.6-2.2z" fill="#55241a"/>
    <path d="m145.2 165.3h3.1v1.9h-3.1z" fill="#55241a"/>
    <path d="m400 90.4h-22.7v-7.6h22.7v-2.8h-25.4v13.2h25.4z" fill="#fff"/>
</svg>