<svg viewBox="0 0 937 150.4" xmlns="http://www.w3.org/2000/svg">
    <path d="m451.5 47.8v-10.3h12.9v10.3zm.1 59.3v-50.6h12.6v50.6zm56.2 0v-30.6c0-6.9-4.4-9.2-8.4-9.2s-8.4 2.3-8.4 9.2v30.6h-12.6v-50.6h12.3v4.7a17.14 17.14 0 0 1 12.6-5.2 16.46 16.46 0 0 1 11.9 4.5c4.1 4.1 5.2 8.8 5.2 14.4v32.3zm85.9-4c-2.8 2.8-7.4 4.6-12.3 4.6-5.3 0-9.1-1.5-12.6-5.3v4.8h-12.2v-69.3h12.6v23c3.3-3.7 7.1-5 12.2-5a17.52 17.52 0 0 1 12.3 4.6c5 5 5.2 13.7 5.2 21.3s-.1 16.2-5.2 21.3zm-16-35.9c-7.6 0-8.5 6.2-8.5 14.5s1 14.6 8.5 14.6 8.5-6.3 8.5-14.6-.9-14.5-8.5-14.5zm62.4 39.9v-4.7a17.14 17.14 0 0 1 -12.6 5.2 16.88 16.88 0 0 1 -12-4.5c-4.1-4.1-5.2-8.8-5.2-14.4v-32.2h12.7v30.6c0 6.9 4.4 9.2 8.3 9.2s8.5-2.3 8.5-9.2v-30.6h12.6v50.6zm43.1.6c-8 0-15.2-.9-21.6-7.3l8.3-8.3c4.2 4.2 9.6 4.8 13.5 4.8 4.4 0 8.9-1.5 8.9-5.2 0-2.5-1.4-4.3-5.3-4.7l-8-.8c-9.1-.9-14.8-4.9-14.8-14.2 0-10.5 9.2-16.1 19.5-16.1 7.9 0 14.5 1.4 19.3 5.9l-7.8 7.9c-2.9-2.6-7.4-3.4-11.8-3.4-5 0-7.2 2.3-7.2 4.9 0 1.8.8 4 5.2 4.4l8 .8c10 1 15.1 6.3 15.1 14.9.2 11-9.4 16.4-21.3 16.4zm31.8-59.9v-10.3h13v10.3zm.2 59.3v-50.6h12.6v50.6zm56.2 0v-30.6c0-6.9-4.4-9.2-8.3-9.2s-8.5 2.3-8.5 9.2v30.6h-12.6v-50.6h12.3v4.7a17.14 17.14 0 0 1 12.6-5.2 16.88 16.88 0 0 1 12 4.5c4.1 4.1 5.2 8.8 5.2 14.4v32.3zm36.1-21.4c0 6.5 4 11.3 11.1 11.3 5.5 0 8.2-1.6 11.5-4.8l7.7 7.5c-5.2 5.2-10.1 8-19.2 8-12 0-23.4-5.4-23.4-25.9 0-16.5 8.9-25.8 22-25.8 14.1 0 22 10.3 22 24.2v5.6h-31.7zm18.1-14.1a9.4 9.4 0 0 0 -12.6-4.3 9.92 9.92 0 0 0 -4.3 4.3 14.6 14.6 0 0 0 -1.2 5.4h19.2a14.47 14.47 0 0 0 -1.1-5.4zm41.9 36.1c-8 0-15.2-.9-21.6-7.3l8.2-8.3c4.2 4.2 9.6 4.8 13.5 4.8 4.4 0 8.9-1.5 8.9-5.2 0-2.5-1.4-4.3-5.3-4.7l-8-.8c-9.1-.9-14.8-4.9-14.8-14.2 0-10.5 9.2-16.1 19.5-16.1 7.9 0 14.5 1.4 19.3 5.9l-7.8 7.9c-2.9-2.6-7.4-3.4-11.8-3.4-5 0-7.2 2.3-7.2 4.9 0 1.8.8 4 5.2 4.4l8 .8c10 1 15 6.3 15 14.9.3 11-9.2 16.4-21.1 16.4zm48 0c-8 0-15.2-.9-21.6-7.3l8.3-8.3c4.2 4.2 9.6 4.8 13.5 4.8 4.4 0 8.9-1.5 8.9-5.2 0-2.5-1.4-4.3-5.3-4.7l-8-.8c-9.1-.9-14.8-4.9-14.8-14.2 0-10.5 9.2-16.1 19.5-16.1 7.9 0 14.5 1.4 19.3 5.9l-7.8 7.9c-2.9-2.6-7.4-3.4-11.8-3.4-5 0-7.2 2.3-7.2 4.9 0 1.8.8 4 5.2 4.4l8 .8c10 1 15 6.3 15 14.9.3 11-9.2 16.4-21.2 16.4z"
          fill="#fff"/>
    <path d="m425.1 150.3-26-92.4c-10.6-36.5-45.3-57.9-77.4-57.9h-321.7l25.6 92.6v.1c10.7 36.8 45.4 57.4 75.7 57.7zm-377.3-63.9c-.1-.2-12.2-44.1-17.5-63.4h291.4c21.7 0 47.5 14.6 55.2 41.2.1.3 15.5 56 17.5 63.2h-292.3c-22.1 0-46.8-15.3-54.3-41z"
          fill="#60c5f8"/>
    <path d="m47.8 86.4c-.1-.2-12.2-44.1-17.5-63.4h291.4c21.7 0 47.5 14.6 55.2 41.2.1.3 15.5 56 17.5 63.2h-292.3c-22.1 0-46.8-15.3-54.3-41z"
          fill="#53241b"/>
    <path d="m94.5 107.1h10.2v-43h11.9v-7.8h-11.9v-6.7c0-3.1 1.1-4.2 4.4-4.2h7.5v-9.6h-8.3c-7.9 0-13.8 4.3-13.8 13.8v6.7h-11.7l2.2 7.8h9.5zm35-17c0 11.5 9 17.6 17 17.6a16.16 16.16 0 0 0 13.1-6h.2v5.4h10.2v-50.7h-10.2v30.2c0 6.9-4.3 10.9-10 10.9s-10.1-4-10.1-10.9v-30.2h-10.2zm58.6 17h10.2v-30.2c0-6.9 4.3-10.9 10.1-10.9s10 4 10 10.9v30.2h10.2v-33.7c0-11.5-9-17.6-16.9-17.6a16.07 16.07 0 0 0 -13.2 6h-.2v-5.4h-10.2zm85.9 0h10.2v-71.3h-10.2v25.9c-3.8-3.6-7.9-6-13.1-6a16.54 16.54 0 0 0 -13.6 6.6c-2.8 3.6-3.6 6.9-3.6 19.3s.8 15.8 3.6 19.4a16.54 16.54 0 0 0 13.6 6.6 17.66 17.66 0 0 0 13.1-5.9zm-10-41.1c9.5 0 10 8.4 10 15.7s-.5 15.8-10 15.8-10.1-7.9-10.1-15.8.5-15.7 10.1-15.7zm64.7 41.1h10.2v-34.6c0-12.5-8.6-16.7-21.1-16.7-7.6 0-13.2 2-17.1 7.4l8 6.1c1.8-2.9 4.3-3.9 9.6-3.9 7.3 0 10.4 1.7 10.4 6.5v5.3h-14.1c-10.9 0-16.5 6.9-16.5 15 0 8.8 6.6 15.5 17.9 15.5 6.9 0 10.4-1.6 12.5-5.1h.2zm0-17.8c0 7.9-2.9 8.8-11.4 8.8-6.9 0-9.6-3-9.6-6.4 0-3.7 2.8-6.1 8.8-6.1h12.2z"
          fill="#fff"/>
</svg>