<svg height="76" viewBox="0 0 49 76" width="49" xmlns="http://www.w3.org/2000/svg"><g fill="none"><g fill="#55241a"><path d="m26 74h-4v-71.984c0-1.152.857-2.016 2-2.016s2 .864 2 2.016z"/><path d="m42.947 58h-36.894c-3.315 0-6.053-2.774-6.053-6.132v-40.736c0-3.358 2.738-6.132 6.053-6.132h36.894c3.315 0 6.053 2.774 6.053 6.132v40.736c0 3.358-2.738 6.132-6.053 6.132z"/><path d="m6.6 55c-2.587 0-4.6-2-4.6-4.571v-39.859c0-2.57 2.013-4.57 4.6-4.57h36.8c2.587 0 4.6 2 4.6 4.571v39.859c0 2.57-2.013 4.57-4.6 4.57z"/></g><path d="m6.153 53c-1.72 0-3.153-1.424-3.153-3.133v-39.734c0-1.709 1.433-3.133 3.153-3.133h36.694c1.72 0 3.153 1.424 3.153 3.133v39.734c0 1.709-1.433 3.133-3.153 3.133z" fill="#fff"/><path d="m42.847 7h-36.694c-1.72 0-3.153 1.448-3.153 3.186v28.814h43v-28.814c0-1.738-1.433-3.186-3.153-3.186z" fill="#f8b000"/><path d="m42.847 7h-36.694c-1.72 0-3.153 1.41-3.153 3.103v7.897c0-1.692 1.433-3.103 3.153-3.103h36.694c1.72 0 3.153 1.41 3.153 3.103v-7.897c0-1.693-1.433-3.103-3.153-3.103z" fill="#f6861e"/><g fill="#fff"><path d="m19.113 21.54v-6.58h-2.423v-1.96h7.127v1.96h-2.423v6.58h-2.28zm5.844 0v-8.54h6.414v1.96h-4.133v1.26h3.99v1.96h-3.99v1.4h4.133v1.96zm-13.113 12.18-2.28-3.22-.57.7v2.52h-2.282v-8.54h2.28v3.5l2.708-3.5h2.709l-3.421 3.92 3.563 4.48h-2.708z"/><path d="m14.267 29.38c0-2.66 1.995-4.34 4.704-4.34 2.708 0 4.703 1.82 4.703 4.34 0 2.66-1.995 4.34-4.703 4.34-2.709 0-4.704-1.68-4.704-4.34zm6.984 0c0-1.4-.855-2.52-2.423-2.52-1.425 0-2.423 1.12-2.423 2.52s.855 2.52 2.423 2.52 2.423-1.12 2.423-2.52zm2.993 0c0-2.66 1.996-4.34 4.704-4.34s4.704 1.82 4.704 4.34c0 2.66-1.996 4.34-4.704 4.34-2.708.14-4.704-1.68-4.704-4.34zm6.985 0c0-1.4-.856-2.52-2.424-2.52-1.425 0-2.423 1.12-2.423 2.52s.856 2.52 2.423 2.52c1.568 0 2.424-1.12 2.424-2.52zm3.421 4.34v-8.54h4.275c1.996 0 2.994 1.26 2.994 2.8s-.998 2.8-2.994 2.8h-2.138v2.8h-2.137zm5.13-5.74c0-.56-.427-.98-.997-.98h-1.853v1.82h1.853c.57 0 .998-.28.998-.84z"/></g><path d="m31.838 45h-14.676c-.726 0-1.162-.5-1.162-1 0-.625.581-1 1.162-1h14.676c.726 0 1.162.5 1.162 1 0 .625-.581 1-1.162 1zm-2.008 4h-9.66c-.731 0-1.17-.5-1.17-1 0-.625.585-1 1.17-1h9.66c.731 0 1.17.5 1.17 1 0 .625-.439 1-1.17 1z" fill="#f6861e"/><path d="m25.164 15.8h2.181v-.933h4.219v-1.867h-6.4zm-3.637 0v-.933h2.473v-1.867h-7.273v1.867h2.473v.933z" fill="#e1f5f5"/><path d="m46 76c-7.409 0-13.51-8-21.5-8s-14.672 8-21.5 8z" fill="#c0ce06"/></g></svg>