<svg height="158" viewBox="0 0 1024 158" width="1024" xmlns="http://www.w3.org/2000/svg"><path d="m978.3 43.2h-204.5c-.3-16.6-13.9-32-30.6-32-8.5 0-16.3 3.5-21.8 9.1-5-11.9-16.7-20.2-30.3-20.3-18.2-.1-33.1 15.5-33.1 33.7v9h-9.5c-18.3 0-33.2 14.8-33.2 33.2h-24.1l-12-15.6v-25.4h4.1v-5.5h-22.2v5.5h3.7v6.8l-22.4-29.1-48.2 63.3h-14.2v11.8h8.2l-.2 37.5h-5.7v-7.1l-4.8-4.8-2.3 2.4v-12c0-7.3-5.6-13.5-12.8-13.9-7.8-.4-14.2 5.8-14.2 13.5v11.2l-1.2-1.2-4.8 4.8v7.1h-5.7v-4c.9-2.1 1.4-4.4 1.2-6.9-.6-7.6-7.2-13.5-14.7-13.3-7.8.2-14 6.6-14 14.4 0 3.1 1 6 2.7 8.4v1.5h-5.7v-7.1l-4.8-4.8-4.8 4.8v7.1h-5.7v-7.1l-4.8-4.8-4.8 4.8v7.1h-5.7v-7.1l-4.8-4.8-4.8 4.8v7.1h-5.7v-7.1l-4.8-4.8-4.8 4.8v21.8c-5.3-1.7-11-2.8-17.6-2.8-2.9 0-5.7.2-8.5.6v-15.4c10.3-1.3 18.3-10 18.3-20.6v-46.8c0-11.5-9.3-20.8-20.8-20.8s-20.8 9.3-20.8 20.8v46.8c0 10.6 8 19.4 18.3 20.6v16.3c-16.9 3.8-31 13.4-51 15.1h-6.1v-36.7h.5c1.4 0 2.5-1.1 2.5-2.5v-2.7c0-1.4-1.1-2.5-2.5-2.5h-28.1v-13.1l-39.2-58.4-39.2 58.4-39.1-58.5-39 58.1-39-58.1-39.2 58.4v61.6h545.2c5-5.5 12.2-9 20.4-9 4 0 7.7.8 11.1 2.3v-17.1c-6.7-.7-11.9-6.3-11.9-13.1v-17.9c0-7.3 5.9-13.2 13.2-13.2h.6c7.3 0 13.2 5.9 13.2 13.2v17.8c0 6.6-4.8 12.1-11.2 13v18.6c7.9-8.2 19.1-13.2 31.5-13.2 14.9 0 28.1 7.3 35.9 18.5h375.8v-69.1c0-24.9-20.5-45.4-45.5-45.4zm-931.7 49.2h-14.7v-21.4h14.7zm77.7 0h-14.7v-21.4h14.7zm358.1 40.6h5.6v9.6h-5.6zm-15.3 3.7c1.9-.8 3.6-2.1 5-3.7h.8v9.6h-5.7v-5.9zm5.7 13.8v3.3h-5.7v-3.3zm-20.9-17c1.5 1.7 3.5 3 5.7 3.7v5.5h-5.7zm5.7 17v3.3h-5.7v-3.3zm-21-17.5h5.7v9.6h-5.7zm5.7 17.5v3.3h-5.7v-3.3zm-20.9-17.5h5.7v9.6h-5.7zm5.7 17.5v3.3h-5.7v-3.3zm-21-17.5h5.7v9.6h-5.7zm5.8 17.5v3.3h-5.7v-3.3zm-21-17.5h5.7v9.6h-5.7zm5.7 17.5v3.3h-5.7v-3.2h5.7zm-21-17.5h5.7v9.6h-5.7zm-15.2 0h5.7v9.6h-5.7zm21 17.5v1.4c-1.5-.4-3-.9-4.5-1.4zm-195.1-19.8h-17.7v-20.1h17.7zm2.9-59.7h14.7v21.3h-14.7zm2.8 59.7v-20.1h17.7v20.1zm27.1-13.6h39.8v36.7h-6c.2-.3.2-.5.2-.9v-3.8h1.5v-6.1c0-1.9-1.6-3.5-3.5-3.5h-.3l-1.8-7.6c-.5-2-2.3-3.4-4.3-3.4h-10.5c-1.8 0-3.5 1.1-4.2 2.8l-2.9 8.2h-.2c-1.9 0-3.5 1.6-3.5 3.5v6.2h1.4v3.8c0 .3.1.6.2.9h-5.9zm8 28.9c-.9 0-1.7-.7-1.7-1.7 0-.9.7-1.7 1.7-1.7.9 0 1.7.7 1.7 1.7-.1.9-.8 1.7-1.7 1.7zm2.4 7.7c.1-.2.2-.5.2-.8v-3.8h18.4v3.8c0 .3.1.6.2.9h-18.8zm.7-14.2 3-8.8h12.4l2 8.8zm12.8 4.8v2.3h-8.4v-2.3zm6.8 0c0-.9.7-1.7 1.7-1.7.9 0 1.7.7 1.7 1.7 0 .9-.7 1.7-1.7 1.7-.9 0-1.7-.8-1.7-1.7zm232.6 9.5v-3.3h5.5v3.3zm57.8-83.2h-12.5v-19h12.5zm17.8 0h-12.5v-19h12.5z" fill="#fff" opacity=".527"/></svg>