<svg viewBox="0 0 44 44" xmlns="http://www.w3.org/2000/svg"><path d="m24.19.96-16.7 18.96v23.9h3.14l.05-.4h10.89l.04.4h19.28v-23.9z" fill="#fdcc2e"/><path d="m41.73 22-17.54-19.89-17.54 19.89a.78.78 0 0 1 -1.08.07.78.78 0 0 1 -.07-1.07l18.03-20.44a.88.88 0 0 1 1.32 0l18.02 20.44a.77.77 0 0 1 -.06 1.08.78.78 0 0 1 -1.08-.08z" fill="#f97d00"/><path d="m20.76 14.98h7.66v4.99h-7.66z" fill="#53241b" transform="matrix(0 1 -1 0 42.06 -7.11)"/><path d="m24.19 21.28 2.86-2.47v-5.16h-.46l-4.51 4.39v3.24z" fill="#694039"/><path d="m21.34 13.57v7.81a.72.72 0 0 0 .72.72h5.09a.72.72 0 0 0 .72-.72v-7.81a.71.71 0 0 0 -.72-.71h-5.09a.71.71 0 0 0 -.72.71zm5.74 7.73h-5v-7.65h5z" fill="#fff"/><path d="m26.29 26.97h7.91v10.16h-7.91z" fill="#53241b" transform="matrix(0 1 -1 0 62.29 1.81)"/><path d="m25.14 36h4.86v-5.57l-4.81 4.81zm7.22-7.86-1.58 1.58v6.28h2l2.51-2.5v-5.39z" fill="#694039"/><g fill="#fff"><path d="m24.39 28v8.15a.7.7 0 0 0 .7.7h10.35a.7.7 0 0 0 .7-.7v-8.15a.69.69 0 0 0 -.7-.69h-10.35a.69.69 0 0 0 -.7.69zm10.93 8h-10.16v-7.9h10.16z"/><path d="m29.94 27.66h.86v8.69h-.86z"/><path d="m12.48 27.27h7.36a.7.7 0 0 1 .7.7v14.39a0 0 0 0 1 0 0h-8.75a0 0 0 0 1 0 0v-14.36a.7.7 0 0 1 .69-.73z"/></g><path d="m12.54 28.09h7.23v14.29h-7.23z" fill="#f7a100"/><path d="m11.81 33.29.73-1.37v-3.83h2.04l.44-.83h-3.21z" fill="#e6f2f7"/><circle cx="18.45" cy="35.86" fill="#fdcc2e" r=".57"/><path d="m20.72 16.92-1.51-7.28a1.59 1.59 0 0 0 -1.74-1.25l-7.38.88a1.6 1.6 0 0 0 -1.09.65l-8.53 11.74a1.63 1.63 0 0 0 .33 2.25l8.89 6.39a1.63 1.63 0 0 0 2.24-.4l8.53-11.74a1.57 1.57 0 0 0 .26-1.24z" fill="#00a8e8"/><path d="m9.4 23.87-.4.61-1-.66.32-.44a4.28 4.28 0 0 1 -.32-.26 4 4 0 0 1 -.41-.31l-.32.45-.91-.65.44-.61a5 5 0 0 1 .08-6.13 4.57 4.57 0 0 1 4.4-1.95l-.33 2a2.7 2.7 0 0 0 -2.54 1.05 3 3 0 0 0 -.27 3.17l2.13-2.95.91.65-2.33 3.16a3.12 3.12 0 0 0 .4.32 2.74 2.74 0 0 0 .39.24l2.36-3.19.92.66-2.14 3a3 3 0 0 0 3-1.26 2.66 2.66 0 0 0 .13-2.77l1.77-1a4.55 4.55 0 0 1 -.44 4.79 5.12 5.12 0 0 1 -5.84 2.08z" fill="#fff"/><path d="m11.09 42.14h10.07a.51.51 0 0 1 .51.51v1.19a0 0 0 0 1 0 0h-11.09a0 0 0 0 1 0 0v-1.19a.51.51 0 0 1 .51-.51z" fill="#fff"/></svg>