<svg viewBox="0 0 44 44" xmlns="http://www.w3.org/2000/svg"><path d="m24 38.49a3.83 3.83 0 0 0 -1-1.38 10.72 10.72 0 0 1 -1.1-.92c-.78-.89-.66-2.14-.61-3.23 0-.84-.11-2 .49-2.69s1.73-.42 2.58-.44c1.44 0 2.87-.18 4.31-.19s2.93 0 4.39.13 2.94.23 4.41.36c.74.07 1.48.11 2.23.11h.3v-19a1.72 1.72 0 0 0 -1.7-1.67h-32.6a1.72 1.72 0 0 0 -1.7 1.71v29.45a1.72 1.72 0 0 0 1.7 1.72h18.93a8.76 8.76 0 0 0 -.63-3.96z" fill="#d0dd53"/><path d="m25.11 42.45h13.19a1.72 1.72 0 0 0 1.7-1.72v-10.64h-17.83v5.91l2.94 3.09z" fill="#6dcbf7"/><ellipse cx="27.65" cy="25.28" fill="#afcd00" rx="3.27" ry=".68"/><g fill="#fff"><path d="m3.97 15.1h36.06v2.59h-36.06z"/><path d="m9.8 9.55h2.52v32.92h-2.52z"/><path d="m3.97 28.77h36.06v2.59h-36.06z"/><ellipse cx="10.94" cy="30.08" rx="4.19" ry="4.16" transform="matrix(.0558215 -.99844076 .99844076 .0558215 -19.7 39.33)"/></g><ellipse cx="10.94" cy="30.08" fill="#d0dd53" rx="2.06" ry="2.05" transform="matrix(.0558215 -.99844076 .99844076 .0558215 -19.7 39.33)"/><path d="m32.21 9.57h2.44v21.16h-2.44z" fill="#fff"/><path d="m20.11 15.96h2.74v15.39h-2.74z" fill="#fff"/><path d="m22.86 33.57v-4.38h-2.76v4.81a2.78 2.78 0 0 0 .54 1.64l2.16 2.9a1.87 1.87 0 0 1 .36 1.09v2.9h2.76v-3.3a2.71 2.71 0 0 0 -.52-1.6l-2.19-3a1.87 1.87 0 0 1 -.35-1.06z" fill="#fff"/><rect fill="#f7a100" height="18.34" rx="1.93" width="19.73" x="17.73" y="1"/><path d="m24.69 19.22 2.38 3.78a.65.65 0 0 0 1.11 0l2.31-3.77z" fill="#f7a100"/><path d="m31.89 16.26h-8.79a.56.56 0 0 1 -.57-.57v-5.16h-1.07a.57.57 0 0 1 -.52-.34.59.59 0 0 1 .11-.62l6.05-6.35a.5.5 0 0 1 .41-.22.55.55 0 0 1 .4.18l6.21 6.35a.55.55 0 0 1 .12.61.57.57 0 0 1 -.52.35h-1.26v5.16a.57.57 0 0 1 -.57.61zm-8.22-1.14h7.65v-5.73h1l-4.86-5-4.72 5h.88z" fill="#fff"/></svg>