<svg xmlns="http://www.w3.org/2000/svg" viewBox="0 0 48 48"><path d="M44.56 19.73a21 21 0 00-16.3-16.29A20.59 20.59 0 0024 3a20.59 20.59 0 00-4.26.44 21 21 0 00-16.31 16.3A21.3 21.3 0 003 24a21.3 21.3 0 00.43 4.26 21 21 0 0016.31 16.31A21.3 21.3 0 0024 45a21.3 21.3 0 004.26-.43 21 21 0 0016.31-16.31A21.3 21.3 0 0045 24a20.76 20.76 0 00-.44-4.27zm-9.2 11.38A38.38 38.38 0 0036 25.5h6c0 .52-.11 1-.2 1.55a15.09 15.09 0 01-6.44 4.06zM6.28 27.05c-.09-.51-.16-1-.2-1.55H12a38.38 38.38 0 00.61 5.61 15.09 15.09 0 01-6.33-4.06zm6.36-10.16A38.38 38.38 0 0012 22.5H6.08c0-.52.11-1 .2-1.55a15.09 15.09 0 016.36-4.06zM41.72 21c.09.51.16 1 .2 1.55H36a38.38 38.38 0 00-.61-5.61A15.09 15.09 0 0141.72 21zM33 22.5h-7.5V15a34.35 34.35 0 016.59.87A34.35 34.35 0 0133 22.5zm-10.46 0H15a34.35 34.35 0 01.87-6.59A34.35 34.35 0 0122.5 15zm-7.54 3h7.5V33a34.35 34.35 0 01-6.59-.87A34.35 34.35 0 0115 25.5zm10.46 0H33a34.35 34.35 0 01-.87 6.59 34.35 34.35 0 01-6.63.91zM40 15.76a25.8 25.8 0 00-5.44-2.3A25.8 25.8 0 0032.24 8 18 18 0 0140 15.76zm-8.87-3.12A38.38 38.38 0 0025.5 12V6.08c.52 0 1 .11 1.55.2a15.09 15.09 0 014.06 6.36zM22.5 6.08V12a38.38 38.38 0 00-5.61.61A15.09 15.09 0 0121 6.28c.46-.09 1-.16 1.5-.2zM15.76 8a25.8 25.8 0 00-2.3 5.44A25.58 25.58 0 008 15.76 18 18 0 0115.76 8zM8 32.24a25.89 25.89 0 005.45 2.3A25.58 25.58 0 0015.76 40 18 18 0 018 32.24zm8.88 3.12a38.38 38.38 0 005.62.64v6c-.52 0-1-.11-1.55-.2a15.09 15.09 0 01-4.06-6.44zm8.61 6.56V36a38.38 38.38 0 005.61-.61 15.09 15.09 0 01-4.06 6.36c-.5.06-1.04.13-1.54.17zM32.24 40a25.58 25.58 0 002.3-5.44A25.8 25.8 0 0040 32.24 18 18 0 0132.24 40z" fill="#0071B3"></path></svg>